HIERARCHY
ROOT hip
{
	OFFSET 0.000000 0.000000 0.000000 
	CHANNELS 6 Xposition Yposition Zposition Xrotation Zrotation Yrotation
	JOINT abdomen
	{
		OFFSET 0.000000 3.402643 0.000000 
		CHANNELS 3 Xrotation Zrotation Yrotation
		JOINT chest
		{
			OFFSET 0.000000 8.438565 -0.680529 
			CHANNELS 3 Xrotation Zrotation Yrotation
			JOINT neck
			{
				OFFSET 0.000000 10.207942 -0.272212 
				CHANNELS 3 Xrotation Zrotation Yrotation
				JOINT head
				{
					OFFSET 0.000000 3.130431 0.000000 
					CHANNELS 3 Xrotation Zrotation Yrotation
					End Site
					{
						OFFSET 0.000000 3.130435 0.000000 
					}
				}
			}
			JOINT lCollar
			{
				OFFSET 3.470700 6.669187 -0.816635 
				CHANNELS 3 Yrotation Zrotation Xrotation
				JOINT lShldr
				{
					OFFSET 3.198488 0.000000 0.000000 
					CHANNELS 3 Zrotation Yrotation Xrotation
					JOINT lForeArm
					{
						OFFSET 10.139888 0.000000 0.000000 
						CHANNELS 3 Yrotation Zrotation Xrotation
						JOINT lHand
						{
							OFFSET 8.370511 0.000000 0.000000 
							CHANNELS 3 Zrotation Yrotation Xrotation
							End Site
							{
								OFFSET 4.083176 0.000000 0.000000 
							}
						}
					}
				}
			}
			JOINT rCollar
			{
				OFFSET -3.470700 6.669187 -0.816635 
				CHANNELS 3 Yrotation Zrotation Xrotation
				JOINT rShldr
				{
					OFFSET -3.198488 0.000000 0.000000 
					CHANNELS 3 Zrotation Yrotation Xrotation
					JOINT rForeArm
					{
						OFFSET -10.139888 0.000000 0.000000 
						CHANNELS 3 Yrotation Zrotation Xrotation
						JOINT rHand
						{
							OFFSET -8.370511 0.000000 0.000000 
							CHANNELS 3 Zrotation Yrotation Xrotation
							End Site
							{
								OFFSET -4.083176 0.000000 0.000000 
							}
						}
					}
				}
			}
		}
	}
	JOINT lThigh
	{
		OFFSET 5.308129 -1.633274 1.361059 
		CHANNELS 3 Xrotation Zrotation Yrotation
		JOINT lShin
		{
			OFFSET -2.041588 -20.007561 0.000000 
			CHANNELS 3 Xrotation Zrotation Yrotation
			JOINT lFoot
			{
				OFFSET 0.000000 -19.190928 -1.224953 
				CHANNELS 3 Xrotation Yrotation Zrotation
				End Site
				{
					OFFSET 0.000000 -2.449906 4.627600 
				}
			}
		}
	}
	JOINT rThigh
	{
		OFFSET -5.308129 -1.633274 1.361059 
		CHANNELS 3 Xrotation Zrotation Yrotation
		JOINT rShin
		{
			OFFSET 2.041588 -20.007561 0.000000 
			CHANNELS 3 Xrotation Zrotation Yrotation
			JOINT rFoot
			{
				OFFSET 0.000000 -19.190928 -1.224953 
				CHANNELS 3 Xrotation Yrotation Zrotation
				End Site
				{
					OFFSET 0.000000 -2.449906 4.627600 
				}
			}
		}
	}
}
MOTION
Frames: 10
Frame Time: 0.016667
0.552454 40.108498 20.989204 17.960100 -11.031800 -11.324500 -18.333099 6.451850 -2.224490 15.883900 5.840040 -0.573675 19.910316 -9.070960 7.735186 14.837100 10.024900 0.287180 2.000000 -2.000000 0.000000 -53.281101 -13.082400 123.775002 24.756100 -0.339000 0.057311 0.044856 0.008473 -133.893997 -2.000000 2.000000 0.000000 71.132797 12.715500 167.365997 -52.871601 0.297372 0.109006 -0.080835 0.071208 -163.268997 -39.571800 11.131119 7.330359 83.644081 -1.053260 4.745822 -17.194498 2.496735 0.928543 -29.710619 9.606384 -4.858393 60.388443 -0.717622 -4.161526 -24.656748 -4.854654 -3.142406 
0.735040 40.334412 22.337601 18.011400 -11.961300 -10.575100 -18.558599 6.961780 -1.702370 15.560600 5.769160 -0.268511 20.784523 -8.606000 7.225970 14.919800 10.118000 -0.159578 2.000000 -2.000000 0.000000 -51.619301 -11.090900 123.246002 25.908501 -0.337824 0.059796 0.044775 0.006752 -134.509995 -2.000000 2.000000 0.000000 69.580803 13.515100 167.886002 -56.611801 0.290086 0.114158 -0.080449 0.070423 -162.957001 -43.614998 12.406841 7.234233 83.589737 -1.155554 4.778801 -17.937799 1.677539 0.413909 -26.430765 10.266275 -5.204535 56.649483 -1.000726 -3.980828 -24.365448 -6.472801 -4.107895 
0.946825 40.656834 23.778788 17.987900 -13.027000 -9.830480 -18.735701 7.516860 -1.170530 15.325100 5.757330 0.050615 21.950720 -8.104401 6.792496 15.134500 10.283100 -0.625650 2.000000 -2.000000 0.000000 -49.899502 -9.187020 122.931000 27.051100 -0.336608 0.062236 0.044673 0.003582 -135.641998 -2.000000 2.000000 0.000000 68.057999 14.187800 168.345993 -60.527901 0.282114 0.119030 -0.080281 0.070079 -162.820007 -47.383373 13.525781 6.805082 82.412964 -1.086108 4.774433 -19.031033 1.074303 -0.030723 -22.717287 11.187535 -5.136404 52.437935 -1.315603 -3.763487 -23.618462 -7.405209 -4.599715 
1.197547 41.108139 25.343773 17.864500 -14.279100 -9.068310 -18.845600 8.136610 -0.632205 15.197000 5.814490 0.384006 23.492102 -7.527919 6.447818 15.512000 10.537400 -1.119410 2.000000 -2.000000 0.000000 -48.102200 -7.409760 122.870003 28.183901 -0.335355 0.064631 0.044640 -0.001559 -137.477997 -2.000000 2.000000 0.000000 66.554604 14.655700 168.718994 -64.668503 0.273344 0.123576 -0.080389 0.070300 -162.908005 -50.863186 14.439519 5.959212 79.559364 -0.862489 4.782816 -20.413687 0.717966 -0.387320 -18.677988 12.394756 -4.550829 47.759747 -1.680067 -3.469336 -22.204824 -7.442813 -4.439568 
1.545538 41.652489 27.091980 17.452801 -15.754700 -8.133320 -19.034000 8.871180 -0.374600 15.067500 5.997960 0.586880 24.592958 -6.867935 6.262249 15.543900 10.833300 -1.572270 2.000000 -2.000000 0.000000 -46.910198 -5.222430 122.731003 29.189800 -0.334203 0.066737 0.044762 -0.006425 -139.216995 -2.000000 2.000000 0.000000 64.904503 14.879500 169.042007 -68.086502 0.265873 0.126844 -0.079924 0.069340 -162.526993 -53.404999 14.920361 4.655369 75.308678 -0.465598 4.672246 -21.275820 0.599299 -0.646200 -14.402202 13.351372 -4.259545 43.206959 -1.997302 -3.181452 -18.007328 -6.744948 -3.616736 
1.932408 42.234104 28.913656 16.889500 -17.306499 -7.096200 -19.249201 9.655630 -0.234266 14.947000 6.249460 0.745289 25.526550 -6.190822 6.145680 15.437700 11.153900 -2.008440 2.000000 -2.000000 0.000000 -45.972198 -2.859330 122.591003 30.136999 -0.333084 0.068700 0.045025 -0.011204 -140.925995 -2.000000 2.000000 0.000000 63.186001 15.015600 169.335007 -71.211502 0.258883 0.129438 -0.079258 0.067931 -161.970993 -55.644127 15.202477 3.181799 70.391983 -0.010226 4.518712 -21.735237 0.540852 -0.804546 -10.249292 14.217911 -4.128047 39.078194 -2.316227 -2.872113 -12.852068 -5.672494 -2.589589 
2.498110 42.798244 30.990904 15.939700 -18.587999 -6.405460 -19.313900 10.332900 -0.126659 15.319300 6.350550 0.933092 26.542738 -6.184038 5.932972 15.607900 11.405700 -2.391310 2.000000 -2.000000 0.000000 -45.530899 -0.526415 121.749001 31.416401 -0.331523 0.071323 0.045666 -0.018174 -143.425995 -2.000000 2.000000 0.000000 61.193901 15.054000 169.617996 -73.135300 0.254513 0.130843 -0.079281 0.067980 -161.990005 -56.057365 15.350353 2.228514 63.961906 0.603456 4.236515 -21.706776 1.062723 -0.697321 -6.473962 13.811693 -4.730061 35.694565 -2.664567 -2.579622 -3.280600 -2.547123 -1.557023 
3.078876 43.301468 33.102074 14.786000 -19.768499 -5.739250 -19.250000 10.969200 -0.045611 15.937400 6.463490 1.109770 27.485352 -6.217158 5.688124 15.767900 11.638400 -2.780520 2.000000 -2.000000 0.000000 -45.001202 1.630330 120.564003 32.422199 -0.330254 0.073360 0.046366 -0.023516 -145.348999 -2.000000 2.000000 0.000000 59.162800 15.190300 169.774994 -74.619698 0.251110 0.131827 -0.079038 0.067460 -161.785004 -56.115707 15.560737 1.332442 57.502285 1.153584 3.922113 -21.324219 1.395505 -0.643114 -2.771518 13.272882 -4.996461 33.064137 -3.053305 -2.322334 5.844637 -0.038253 -1.231598 
3.697287 43.652546 35.297947 13.181600 -20.728701 -5.198500 -18.865000 11.495300 -0.055732 17.165199 6.570610 1.291480 28.268707 -6.317466 5.355941 15.936000 11.822600 -3.147070 2.000000 -2.000000 0.000000 -44.225498 3.385720 118.501999 32.715199 -0.329877 0.073949 0.046560 -0.024786 -145.807999 -2.000000 2.000000 0.000000 57.053600 15.561900 169.589996 -75.000504 0.250233 0.132065 -0.078165 0.065544 -161.033005 -55.156410 15.965845 0.669773 50.987064 1.715294 3.547762 -20.153376 1.335581 -0.669561 0.794611 12.341994 -4.408207 32.124519 -3.539161 -2.144182 14.099049 0.657994 -1.505470 
4.300061 43.818054 37.488430 11.278100 -21.443300 -4.433870 -18.900499 11.990800 -0.239870 17.526199 7.002010 1.300540 29.052418 -7.000010 4.917105 16.218700 11.886500 -3.473330 2.000000 -2.000000 0.000000 -43.199799 5.943980 118.207001 33.291401 -0.329129 0.075102 0.046755 -0.026001 -146.248001 -2.000000 2.000000 0.000000 55.305199 15.073600 169.559998 -74.941902 0.250368 0.132029 -0.077307 0.063591 -160.270996 -53.775024 16.030394 -0.688226 45.140472 2.213974 3.151982 -19.671389 2.593289 -0.288086 4.872734 11.185237 -3.188019 31.868177 -3.782224 -2.075011 18.173708 -0.466149 -1.415876 
